<svg xmlns="http://www.w3.org/2000/svg" width="800" height="600"><polygon points="147.55282581475768,134.54915028125262 129.38926261462365,190.45084971874738 70.61073738537635,190.45084971874738 52.44717418524232,134.54915028125265 99.99999999999999,100" fill="#443a18" stroke="#582c09" stroke-width="2"/><polygon points="247.55282581475768,134.54915028125262 229.38926261462365,190.45084971874738 170.61073738537635,190.45084971874738 152.44717418524232,134.54915028125265 200,100" fill="#443a18" stroke="#582c09" stroke-width="2"/><polygon points="347.5528258147577,134.54915028125262 329.38926261462365,190.45084971874738 270.61073738537635,190.45084971874738 252.44717418524232,134.54915028125265 300,100" fill="#443a18" stroke="#582c09" stroke-width="2"/>
                            <polygon points="300,42.5 252.5,137.5 347.5,137.5"
                            fill="#2937ff" stroke="#582c09" stroke-width="2"/>
                        
                            <polygon points="200,42.5 152.5,137.5 247.5,137.5"
                            fill="#ff2929" stroke="#582c09" stroke-width="2"/>
                        
                            <polygon points="100,42.5 52.5,137.5 147.5,137.5"
                            fill="#47c918" stroke="#582c09" stroke-width="2"/>
                        <circle cx="110" cy="100" r="5" fill="#000000" stroke="#0f0f0f" stroke-width="2"/><circle cx="85" cy="100" r="5" fill="#000000" stroke="#0f0f0f" stroke-width="2"/><circle cx="185" cy="100" r="5" fill="#000000" stroke="#0f0f0f" stroke-width="2"/><circle cx="210" cy="100" r="5" fill="#000000" stroke="#0f0f0f" stroke-width="2"/><circle cx="285" cy="100" r="5" fill="#000000" stroke="#0f0f0f" stroke-width="2"/><circle cx="310" cy="100" r="5" fill="#000000" stroke="#0f0f0f" stroke-width="2"/><circle cx="230" cy="350" r="80" fill="#056107" stroke="#257d0d" stroke-width="2"/><circle cx="150" cy="400" r="80" fill="#056107" stroke="#257d0d" stroke-width="2"/><circle cx="300" cy="420" r="80" fill="#056107" stroke="#257d0d" stroke-width="2"/>
                            <polygon points="225,417.5 142.5,582.5 307.5,582.5"
                            fill="#6a430b" stroke="#7d490d" stroke-width="2"/>
                        <circle cx="500" cy="500" r="80" fill="#6f6e6d" stroke="#595959" stroke-width="2"/><circle cx="550" cy="450" r="60" fill="#6f6e6d" stroke="#595959" stroke-width="2"/><circle cx="550" cy="550" r="40" fill="#6f6e6d" stroke="#595959" stroke-width="2"/><circle cx="450" cy="550" r="40" fill="#6f6e6d" stroke="#595959" stroke-width="2"/><circle cx="520" cy="445" r="10" fill="#000000" stroke="#000000" stroke-width="2"/><circle cx="575" cy="445" r="10" fill="#000000" stroke="#000000" stroke-width="2"/>
                            <polygon points="550,450 545,460 555,460"
                            fill="#f0bce2" stroke="#ee96db" stroke-width="2"/>
                        
                            <polygon points="580,360 560,400 600,400"
                            fill="#919191" stroke="#4f4f4f" stroke-width="2"/>
                        
                            <polygon points="530,360 510,400 550,400"
                            fill="#919191" stroke="#4f4f4f" stroke-width="2"/>
                        <rect x="460" y="10" width="280" height="280" fill="#f792cd" stroke="#f79292" stroke-width="2"/><rect x="490" y="40" width="220" height="220" fill="#c492f7" stroke="#804eca" stroke-width="2"/><rect x="525" y="75" width="150" height="150" fill="#92b0f7" stroke="#4e67ca" stroke-width="2"/><polygon points="657.0633909777092,131.45898033750316 635.2671151375484,198.54101966249686 564.7328848624517,198.54101966249686 542.9366090222908,131.45898033750316 600,90" fill="#f7e192" stroke="#eed9a0" stroke-width="2"/></svg>